<?xml version="1.0" encoding="UTF-8"?>
<svg width="512px" height="512px" viewBox="0 0 512 512" version="1.1" xmlns="http://www.w3.org/2000/svg" xmlns:xlink="http://www.w3.org/1999/xlink">
    <title>Artboard@2x</title>
    <defs>
        <linearGradient x1="91.5941051%" y1="22.78379%" x2="8.29105139%" y2="22.4352695%" id="linearGradient-1">
            <stop stop-color="#ECD718" offset="0%"></stop>
            <stop stop-color="#7468FF" offset="42.1875%"></stop>
            <stop stop-color="#FF3DB1" offset="74.4792%"></stop>
            <stop stop-color="#00D622" offset="100%"></stop>
        </linearGradient>
        <linearGradient x1="77.0071877%" y1="91.7304302%" x2="77.7740275%" y2="8.42995142%" id="linearGradient-2">
            <stop stop-color="#EC1818" offset="0%"></stop>
            <stop stop-color="#68EDFF" offset="42.1875%"></stop>
            <stop stop-color="#3D50FF" offset="74.4792%"></stop>
            <stop stop-color="#00D622" offset="100%"></stop>
        </linearGradient>
        <linearGradient x1="90.2225419%" y1="22.7837307%" x2="8.17703485%" y2="22.4349783%" id="linearGradient-3">
            <stop stop-color="#FFFFFF" offset="0%"></stop>
            <stop stop-color="#FFFFFF" stop-opacity="0.26" offset="42.1875%"></stop>
            <stop stop-color="#FFFFFF" stop-opacity="0.33" offset="74.4792%"></stop>
        </linearGradient>
        <linearGradient x1="94.3701135%" y1="72.4150875%" x2="53.0176756%" y2="0.0927342271%" id="linearGradient-4">
            <stop stop-color="#35EC18" offset="0%"></stop>
            <stop stop-color="#EA68FF" offset="42.1875%"></stop>
            <stop stop-color="#3DFFDC" offset="74.4792%"></stop>
            <stop stop-color="#B8D600" offset="100%"></stop>
        </linearGradient>
        <linearGradient x1="27.3621666%" y1="94.2573787%" x2="99.8912177%" y2="53.2681539%" id="linearGradient-5">
            <stop stop-color="#EC1818" offset="0%"></stop>
            <stop stop-color="#68EDFF" offset="42.1875%"></stop>
            <stop stop-color="#3D50FF" offset="74.4792%"></stop>
            <stop stop-color="#00D622" offset="100%"></stop>
        </linearGradient>
        <linearGradient x1="94.3705731%" y1="63.2046496%" x2="53.0176816%" y2="1.07183681%" id="linearGradient-6">
            <stop stop-color="#FFFFFF" offset="0%"></stop>
            <stop stop-color="#FFFFFF" stop-opacity="0.26" offset="42.1875%"></stop>
            <stop stop-color="#FFFFFF" stop-opacity="0.33" offset="74.4792%"></stop>
        </linearGradient>
        <linearGradient x1="83.1273832%" y1="12.9517801%" x2="2.58564262%" y2="34.1720221%" id="linearGradient-7">
            <stop stop-color="#ECD718" offset="0%"></stop>
            <stop stop-color="#7468FF" offset="42.1875%"></stop>
            <stop stop-color="#FF3DB1" offset="74.4792%"></stop>
            <stop stop-color="#00D622" offset="100%"></stop>
        </linearGradient>
        <linearGradient x1="86.8814019%" y1="83.3131365%" x2="66.0656831%" y2="2.66577295%" id="linearGradient-8">
            <stop stop-color="#EC1818" offset="0%"></stop>
            <stop stop-color="#68EDFF" offset="42.1875%"></stop>
            <stop stop-color="#3D50FF" offset="74.4792%"></stop>
            <stop stop-color="#00D622" offset="100%"></stop>
        </linearGradient>
        <linearGradient x1="78.0736071%" y1="12.9517706%" x2="2.62144661%" y2="34.1719974%" id="linearGradient-9">
            <stop stop-color="#FFFFFF" offset="0%"></stop>
            <stop stop-color="#FFFFFF" stop-opacity="0.26" offset="42.1875%"></stop>
            <stop stop-color="#FFFFFF" stop-opacity="0.33" offset="74.4792%"></stop>
        </linearGradient>
    </defs>
    <g id="Artboard" stroke="none" stroke-width="1" fill="none" fill-rule="evenodd">
        <g id="JSON-Unify-logo" transform="translate(17.000000, 69.143599)">
            <g id="Group" transform="translate(91.542137, 31.853705)">
                <path d="M14.2339912,140.321105 C-11.9015085,179.86761 -1.0301974,233.113681 38.5163078,259.249015 C78.062813,285.385177 131.308884,274.513203 157.445047,234.966698 C183.58038,195.420193 172.709235,142.174122 133.16273,116.038788 C93.6162247,89.9026255 40.3701538,100.7746 14.2339912,140.321105 Z M19.6587905,143.905317 C-4.49756072,180.456001 5.55066592,229.667864 42.1013493,253.824215 C78.6520327,277.979738 127.863896,267.931511 152.020247,231.381657 C176.17577,194.830973 166.127543,145.618281 129.577688,121.462759 C93.027005,97.3064075 43.814313,107.354634 19.6587905,143.905317 Z" id="Shape" fill="url(#linearGradient-1)"></path>
                <path d="M130.472706,120.841219 C93.5789324,96.1909507 43.6875189,106.117356 19.0372507,143.011129 C-5.61301747,179.905731 4.31338737,229.797144 41.2071607,254.446584 C78.1017628,279.096852 127.993176,269.170447 152.642616,232.276674 C177.292884,195.382072 167.367308,145.490658 130.472706,120.841219 Z M127.090701,125.901382 C92.9913701,103.119048 46.8797472,112.292975 24.0974133,146.392305 C1.31507941,180.490807 10.4890068,226.60243 44.5883372,249.385593 C78.6868389,272.167926 124.79929,262.993999 147.581624,228.894669 C170.363958,194.795338 161.190031,148.683715 127.090701,125.901382 Z" id="Shape" fill="url(#linearGradient-2)"></path>
                <path d="M5.1338199,207.805409 C10.0100068,227.254632 21.8938476,245.009124 39.940877,256.936058 C78.2567334,282.259247 129.845365,271.72539 155.168553,233.409534 C180.490913,195.093677 169.957886,143.504217 131.642029,118.181857 C110.809673,104.414337 86.054986,101.246141 63.7309341,107.377838 C65.3925171,109.020361 66.9529964,110.754042 68.4065708,112.56811 C88.2187732,107.989433 109.800292,111.232214 128.104225,123.329864 C163.517905,146.733738 173.252875,194.414956 149.849002,229.827807 C126.444299,265.241487 78.7639099,274.976458 43.3502299,251.572584 C27.6617369,241.203643 17.0118597,226.069563 12.0519721,209.348485 C10.0589012,209.025285 8.06334412,208.598494 6.07110191,208.06397 C5.75701713,207.980269 5.4445898,207.894082 5.1338199,207.805409 Z" id="Path" fill="url(#linearGradient-3)"></path>
                <path d="M208.534789,101.970442 C161.219036,99.1097016 120.542157,135.147407 117.680588,182.463989 C114.819848,229.779741 150.857553,270.45662 198.174135,273.318189 C245.490716,276.17893 286.166766,240.141224 289.028335,192.824643 C291.889076,145.508061 255.85137,104.832011 208.534789,101.970442 Z M208.141976,108.460146 C164.410436,105.815702 126.815566,139.123605 124.171121,182.855144 C121.526676,226.587513 154.834579,264.182383 198.566119,266.826828 C242.298488,269.471273 279.893358,236.163369 282.537803,192.431001 C285.182247,148.699461 251.874344,111.104591 208.141976,108.460146 Z" id="Shape" fill="url(#linearGradient-4)"></path>
                <path d="M283.523979,192.895913 C286.424498,148.619904 252.882896,110.375317 208.606059,107.474798 C164.33005,104.575108 126.085463,138.11671 123.185773,182.392719 C120.285254,226.668728 153.826856,264.913314 198.102865,267.813833 C242.379702,270.714352 280.62346,237.17275 283.523979,192.895913 Z M277.451121,192.498127 C280.132029,151.575947 249.131282,116.229394 208.209102,113.548485 C167.286922,110.867577 131.940368,141.868324 129.25946,182.790504 C126.578552,223.712684 157.579299,259.059238 198.501479,261.740146 C239.423659,264.421055 274.770213,233.420307 277.451121,192.498127 Z" id="Shape" fill="url(#linearGradient-5)"></path>
                <path d="M145.540488,127.833127 C131.134853,141.781309 121.701536,160.949596 120.396303,182.54106 C117.624235,228.385006 152.540683,267.79643 198.38463,270.568497 C244.228576,273.340565 283.639171,238.423288 286.411239,192.58017 C287.91868,167.654767 278.284813,144.631276 261.811522,128.364337 C261.220645,130.624255 260.499659,132.842738 259.654365,135.009011 C273.527133,149.877901 281.509361,170.189821 280.185067,192.090397 C277.622666,234.461179 241.197948,266.732354 198.826337,264.170781 C156.455555,261.60838 124.18438,225.183662 126.746782,182.81288 C127.881299,164.041549 135.662977,147.252516 147.662839,134.596309 C146.946825,132.708485 146.318656,130.765966 145.784131,128.773724 C145.700431,128.460468 145.619216,128.146383 145.540488,127.833127 Z" id="Path" fill="url(#linearGradient-6)"></path>
                <path d="M61.5273683,58.6756376 C46.5175967,103.638655 70.7999133,152.257155 115.762931,167.266926 C160.726777,182.276698 209.344448,157.994382 224.355048,113.031364 C239.36482,68.0675182 215.082503,19.4496812 170.118657,4.43982667 C125.15564,-10.5701107 76.53714,13.7120402 61.5273683,58.6756376 Z M67.6947005,60.7341774 C53.8219324,102.291157 76.2644912,147.225997 117.82147,161.098766 C159.37845,174.971534 204.31329,152.528975 218.186059,110.971996 C232.058827,69.4150165 209.616268,24.479927 168.059289,10.6071588 C126.50231,-3.26560932 81.5674687,19.1769495 67.6947005,60.7341774 Z" id="Shape" fill="url(#linearGradient-7)"></path>
                <path d="M168.764529,9.7749585 C126.747611,-4.48614773 81.1257611,18.0144215 66.8643234,60.031423 C52.6037144,102.048342 75.1034548,147.67102 117.120374,161.931629 C159.138121,176.193067 204.75997,153.692497 219.021408,111.675579 C233.282017,69.6586601 210.781448,24.0360647 168.764529,9.7749585 Z M166.807922,15.5379583 C127.974116,2.35717113 85.8080275,23.1531467 72.6272403,61.9872016 C59.4464531,100.821008 80.2423459,142.987096 119.076152,156.167883 C157.910787,169.34867 200.076875,148.552778 213.257662,109.718971 C226.437621,70.8851652 205.641728,28.7186627 166.807922,15.5379583 Z" id="Shape" fill="url(#linearGradient-8)"></path>
                <path d="M70.2024064,126.216295 C79.9464929,143.741231 96.0203407,157.814549 116.539441,164.664747 C160.103579,179.20712 207.208837,155.680596 221.75204,112.116458 C236.294413,68.5523192 212.767889,21.4468128 169.203751,6.90394189 C145.518941,-1.00262437 120.787458,2.34341438 100.811169,14.0443568 C102.841533,15.1999236 104.79814,16.4706824 106.671875,17.8476002 C124.623602,8.29677113 146.308711,5.84434085 167.119521,12.7914983 C207.383697,26.2326692 229.127645,69.7688798 215.68664,110.033056 C202.245635,150.297233 158.708844,172.041181 118.445496,158.600176 C100.607304,152.645824 86.403877,140.78353 77.2846452,125.916298 C75.2766573,126.119335 73.2388355,126.223753 71.1769808,126.223753 C70.8512939,126.223753 70.5264358,126.221267 70.2024064,126.216295 Z" id="Path" fill="url(#linearGradient-9)"></path>
            </g>
            <path d="M47.3924092,99.8607266 L47.3924092,59.6678201 C47.3924092,34.076955 62.2736464,13.2595156 80.567137,13.2595156 L109.002334,13.2595156 C111.609486,13.2595156 113.741782,10.292699 113.741782,6.62975779 C113.741782,2.96681661 111.609486,0 109.002334,0 L80.567137,0 C57.0486514,0 37.9139273,26.7676471 37.9139273,59.6678201 L37.9139273,99.8192907 C37.9139273,133.863097 24.3893043,164.476003 2.61843112,179.699585 C1.01834737,180.826644 0,182.401211 0,185.633218 C0,188.865225 1.01834737,190.437306 2.61961619,191.563536 C24.3893043,206.765571 37.9139273,237.428201 37.9139273,271.405709 L37.9139273,311.598616 C37.9139273,344.498789 57.0486514,371.266436 80.567137,371.266436 L109.002334,371.266436 C111.621917,371.266436 113.741782,368.301277 113.741782,364.636678 C113.741782,360.97208 111.621917,358.00692 109.002334,358.00692 L80.567137,358.00692 C62.2736464,358.00692 47.3924092,337.189481 47.3924092,311.598616 L47.3924092,271.447145 C47.3924092,236.350865 34.8866971,204.445156 14.2532334,185.633218 C34.8866971,166.82128 47.3924092,134.915571 47.3924092,99.8607266 Z" id="Path" fill="#252525" fill-rule="nonzero"></path>
            <path d="M431.607176,99.8607266 L431.607176,59.6678201 C431.607176,34.076955 416.726685,13.2595156 398.432697,13.2595156 L369.997666,13.2595156 C367.390514,13.2595156 365.258218,10.292699 365.258218,6.62975779 C365.258218,2.96681661 367.390514,0 369.997666,0 L398.432697,0 C421.951763,0 441.086073,26.7676471 441.086073,59.6678201 L441.086073,99.8192907 C441.086073,133.863097 454.610779,164.476003 476.381246,179.699585 C477.981503,180.826644 479,182.401211 479,185.633218 C479,188.865225 477.981503,190.437306 476.380417,191.563536 C454.610779,206.765571 441.086073,237.428201 441.086073,271.405709 L441.086073,311.598616 C441.086073,344.498789 421.951763,371.266436 398.432697,371.266436 L369.997666,371.266436 C367.378083,371.266436 365.258218,368.301277 365.258218,364.636678 C365.258218,360.97208 367.378083,358.00692 369.997666,358.00692 L398.432697,358.00692 C416.726685,358.00692 431.607176,337.189481 431.607176,311.598616 L431.607176,271.447145 C431.607176,236.350865 444.113386,204.445156 464.746849,185.633218 C444.113386,166.82128 431.607176,134.915571 431.607176,99.8607266 Z" id="Path" fill="#252525" fill-rule="nonzero"></path>
        </g>
    </g>
</svg>